<svg xmlns="http://www.w3.org/2000/svg" xmlns:xlink="http://www.w3.org/1999/xlink" version="1.1" x="0px" y="0px" width="100px" height="100px" viewBox="0 0 100 100" enable-background="new 0 0 100 100" xml:space="preserve">
<g id="Captions">
</g>
<g id="Your_Icon">
	<path fill="#000000" d="M91.567,18H8.181c-3.548,0-6.433,2.888-6.433,6.432V76.82c0,3.543,2.885,6.432,6.433,6.432h83.387   c3.548,0,6.433-2.889,6.433-6.432V24.432C98,20.888,95.115,18,91.567,18z M58.681,75.264c1.047-1.822,2.852-2.627,3.421-4.682   c0.625-2.264-0.186-3.857,1.158-6.023c1.525-2.449,2.795-3.172,5.825-3.068c2.985,0.084,6.525,0.203,8.613,2.531   c1.027,1.133,0.812,2.742,2.546,3.574c0.793,0.379,2.044-0.008,2.918,0.344c2.052,0.803,2.6,2.717,3.365,4.488   c1.222,2.852,2.814,3.268,5.558,4.348c0.41,0.938,0.037,2.203-0.666,3.574H58.104C57.731,78.576,57.869,76.709,58.681,75.264z    M55.465,50.167l0.674,0.127c0.658,0.082,1.284,0.193,1.806,0.365l-1.806-0.365c-0.197-0.008-0.395-0.029-0.581-0.052   c0.552,0.589,1.426,0.335,2.208,0.492c0.041-0.009,0.093-0.023,0.134-0.038c0.008,0.029,0.008,0.038,0.015,0.06   c0.31,0.09,0.607,0.269,0.842,0.611c1.251-0.299,1.994,1.064,3.618,0.803c0.138,0.418,0.521,1.043,0.606,1.43   c0.187,0.082,0.156-0.312,0.361-0.207c0,0.029,0.011,0.668,0.011,0.668c-2.274,0.559-1.593-0.959-2.725-1.592   c-1.191-0.656-2.424,0.133-2.714-1.712c-0.056-0.007-0.101-0.015-0.148-0.021c-0.969,0.245-2.163,0.498-3.253,0.378   c-0.016-0.32-0.045-0.587,0-0.916c0.335,0,0.691,0.022,1.045,0.045C55.531,50.22,55.49,50.198,55.465,50.167z M60.46,54.873   c0.495-0.104,0.909-0.029,1.259,0.172l-0.552-0.447c0.778,0.238,1.334,0.492,1.448,1.199c-0.559,0.133-1.593,0.133-2.155,0   C60.435,55.469,60.427,55.201,60.46,54.873z M72.555,53.861l-0.496-0.254c0.403,0,0.831,0.148,1.203,0.291   c0.104,0.387,0.111,0.967,0,1.355C71.984,55.275,71.314,54.479,72.555,53.861z M64.934,20.903c1.285,1.593-0.952,2.315-0.521,3.99   c0.384,1.474,1.616-2.427,2.155-2.486c0.392,1.25,2.114,1.519,3.246,1.98c0.22,1.541-1.157,1.593-2.423,1.459   c0.07,3.767-2.979,2.33-4.98,3.461c-2.024,1.154-2.938,3.566-3.235,5.643c-0.438,3.067-2.609,3.782-3.645,6.165   c-1.287,2.963,2.562,3.67,1.862,6.075c-2.04-0.38-2.87-2.993-5.126-3.625c-3.067-0.878-12.195,1.429-13.583,4.69   c-1.623,3.774,1.958,9.12,6.332,7.274c1.508-0.635,2.554-4.631,4.705-3.293l0.298,2.854c0.241,3.631,5.241,7.184,6.183,8.545   c0.93,1.342,4.039,1.795,5.609,2.07c1.69,5.494-8.334-0.959-9.347-1.586c-0.804-0.49-1.467-1.398-2.274-1.838   c-1.176-0.625-2.735-0.35-3.89-0.805c-1.783-0.67-2.669-1.607-4.939-1.721c-4.794-0.229-9.157-0.811-11.841-5.137   c-1.652-2.656-5.874-11.173-9.437-10.317c-0.365,4.162,8.8,6.12,6.618,10.251c-3.134,0.395-5.415-5.732-6.964-7.965   c-2.331-3.373-6.104-6.604-5.87-10.876c0.093-1.839,0.874-3.38,0.732-5.234c-0.156-1.936-1.022-3.67-1.246-5.643   c-0.73-6.983-4.188-0.484-8.13-1.288c0.034-0.789,0.339-1.392,0.793-1.891c0.596-0.469,1.343-0.752,2.163-0.752H64.934z    M4.674,24.053c-0.004,0.044-0.004,0.074-0.008,0.111C4.67,24.127,4.67,24.097,4.674,24.053z"/>
</g>
</svg>